<svg xmlns="http://www.w3.org/2000/svg" viewBox="0 0 48 37" width="48" height="37"> <path d="M10.4 19H5V20.2C5 22.2 6.5 23.9 8.4 24H14V22.7C14 20.7 12.4 19 10.4 19ZM34 22.7V24H39.7C41.8 24 43 22.3 43 20.2V19H37.8C35.7 19 34 20.7 34 22.7ZM22.2 19H16.7C16 19 15 19.5 15 20.2C15 22.3 16.7 24 18.7 24H22.2C22.9 24 23.5 23.5 23.5 22.8V20.2C23.5 19.7 22.8 19 22.2 19ZM31.3 19H25.8C25.1 19 24.5 19.5 24.5 20.2V22.8C24.5 23.5 25.2 24 25.8 24H29.3C31.3 24 33 22.3 33 20.2C33 19.5 32 19 31.3 19ZM46.3 12.4004C47.6 11.9004 48 11.6004 48 10.7004C48 9.80039 47.3 9.20039 46.5 9.20039H41.7C41 8.20039 40.5 7.20039 40 6.40039C38 3.30039 36.7 0.900391 33.5 0.900391H14.4C11.3 0.900391 9.9 3.20039 7.9 6.40039C7.4 7.20039 6.9 8.10039 6.2 9.20039H1.5C0.7 9.20039 0 9.90039 0 10.7004C0 11.5004 0.3 11.9004 1.7 12.4004C2.1 12.5004 2.6 12.7004 3.3 12.9004L0 16.7004V32.0004C0 34.8004 2.2 37.0004 5 37.0004H8C10.8 37.0004 13 34.8004 13 32.0004H35C35 34.8004 37.2 37.0004 40 37.0004H43C45.8 37.0004 48 34.8004 48 32.0004V16.7004L44.7 12.8004C45.4 12.7004 46 12.5004 46.3 12.4004ZM8.9 10.8004C9.5 9.70039 10 8.90039 10.5 8.10039L10.7 7.70039C12.7 4.60039 13.2 4.00039 14.4 4.00039H33.6C34.8 4.00039 35.3 4.50039 37.3 7.70039L37.5 8.10039C37.7 8.40039 37.8 8.60039 38 8.90039C38.3 9.50039 38.7 10.2004 39.2 11.0004V11.1004H8.8L8.9 10.8004ZM45 32.0004C45 33.2004 44.2 34.0004 43 34.0004H40C38.8 34.0004 38 33.2004 38 32.0004V29.0004H35H13H10V32.0004C10 33.2004 9.2 34.0004 8 34.0004H5C3.8 34.0004 3 33.2004 3 32.0004V17.8004L6.3 14.0004H41.7L45 17.8004V32.0004Z" fill="#262626"></path> </svg>
